<svg xmlns="http://www.w3.org/2000/svg" width="248" height="230" viewBox="0 0 248 230">
  <g id="Group_1" data-name="Group 1" transform="translate(-845 -407)">
    <g id="graphic" transform="translate(860 440)">
      <g id="Sizing_Rectangle" data-name="Sizing Rectangle" transform="translate(-15 -33)" fill="rgba(0,0,0,0)" stroke="rgba(0,0,0,0)" stroke-width="1">
        <rect width="200" height="200" stroke="none"/>
        <rect x="0.5" y="0.5" width="199" height="199" fill="none"/>
      </g>
      <path id="rgba_0_0_0_0.2_" data-name="rgba(0,0,0,0.2)" d="M31.5,11l-1,2Z" fill="rgba(0,0,0,0.2)"/>
      <path id="rgba_0_0_0_0.2_2" data-name="rgba(0,0,0,0.2)" d="M139.5,35l1,2Z" fill="rgba(0,0,0,0.2)"/>
      <path id="rgba_0_0_0_0.2_3" data-name="rgba(0,0,0,0.2)" d="M12.5,36l-1,2Z" fill="rgba(0,0,0,0.2)"/>
      <path id="rgba_0_0_0_0.2_4" data-name="rgba(0,0,0,0.2)" d="M187.5,36l1,2Z" fill="rgba(0,0,0,0.2)"/>
      <path id="rgba_0_0_0_0.2_5" data-name="rgba(0,0,0,0.2)" d="M148.5,61l-42,43Z" fill="rgba(0,0,0,0.2)"/>
      <path id="rgba_0_0_0_0.2_6" data-name="rgba(0,0,0,0.2)" d="M67.5,66l-21,22Z" fill="rgba(0,0,0,0.2)"/>
      <path id="rgba_0_0_0_0.2_7" data-name="rgba(0,0,0,0.2)" d="M153.5,66l-17,18Z" fill="rgba(0,0,0,0.2)"/>
      <path id="rgba_0_0_0_0.2_8" data-name="rgba(0,0,0,0.2)" d="M128.5,70l-10,11Z" fill="rgba(0,0,0,0.2)"/>
      <path id="rgba_0_0_0_0.2_9" data-name="rgba(0,0,0,0.2)" d="M97.5,76l1,2Z" fill="rgba(0,0,0,0.2)"/>
      <path id="rgba_0_0_0_0.2_10" data-name="rgba(0,0,0,0.2)" d="M76.5,78l3,4Z" fill="rgba(0,0,0,0.2)"/>
      <path id="rgba_0_0_0_0.2_11" data-name="rgba(0,0,0,0.2)" d="M85.5,78l16,17Z" fill="rgba(0,0,0,0.2)"/>
      <path id="rgba_0_0_0_0.2_12" data-name="rgba(0,0,0,0.2)" d="M66.5,87l21,22Z" fill="rgba(0,0,0,0.2)"/>
      <path id="rgba_0_0_0_0.2_13" data-name="rgba(0,0,0,0.2)" d="M53.5,88l25,26Z" fill="rgba(0,0,0,0.2)"/>
      <path id="rgba_0_0_0_0.2_14" data-name="rgba(0,0,0,0.2)" d="M52.5,97l33,34Z" fill="rgba(0,0,0,0.2)"/>
      <path id="rgba_0_0_0_0.2_15" data-name="rgba(0,0,0,0.2)" d="M67.5,125l.5,5.5H67Z" fill="rgba(0,0,0,0.2)"/>
      <path id="rgba_0_0_0_0.2_16" data-name="rgba(0,0,0,0.2)" d="M10.5,150l4,5Z" fill="rgba(0,0,0,0.2)"/>
      <path id="rgba_0_0_0_0.2_17" data-name="rgba(0,0,0,0.2)" d="M11.5,154l1,2Z" fill="rgba(0,0,0,0.2)"/>
      <path id="rgba_0_0_0_0.2_18" data-name="rgba(0,0,0,0.2)" d="M188.5,154l-1,2Z" fill="rgba(0,0,0,0.2)"/>
      <path id="rgba_0_0_0_0.2_19" data-name="rgba(0,0,0,0.2)" d="M64,183l15,.5L65,184l-.5,6Z" fill="rgba(0,0,0,0.2)"/>
      <path id="rgba_0_0_0_0.73_" data-name="rgba(0,0,0,0.73)" d="M110.5,23l-42,43Z" fill="rgba(0,0,0,0.73)"/>
      <path id="rgba_0_0_0_0.73_2" data-name="rgba(0,0,0,0.73)" d="M146.5,29l1,2Z" fill="rgba(0,0,0,0.73)"/>
      <path id="rgba_0_0_0_0.73_3" data-name="rgba(0,0,0,0.73)" d="M109.5,32l-55,56Z" fill="rgba(0,0,0,0.73)"/>
      <path id="rgba_0_0_0_0.73_4" data-name="rgba(0,0,0,0.73)" d="M141.5,33l1,2Z" fill="rgba(0,0,0,0.73)"/>
      <path id="rgba_0_0_0_0.73_5" data-name="rgba(0,0,0,0.73)" d="M132.5,34l-2,3Z" fill="rgba(0,0,0,0.73)"/>
      <path id="rgba_0_0_0_0.73_6" data-name="rgba(0,0,0,0.73)" d="M144.5,36l1,2Z" fill="rgba(0,0,0,0.73)"/>
      <path id="rgba_0_0_0_0.73_7" data-name="rgba(0,0,0,0.73)" d="M141.5,43l-2,3Z" fill="rgba(0,0,0,0.73)"/>
      <path id="rgba_0_0_0_0.73_8" data-name="rgba(0,0,0,0.73)" d="M130.5,44l1,2Z" fill="rgba(0,0,0,0.73)"/>
      <path id="rgba_0_0_0_0.73_9" data-name="rgba(0,0,0,0.73)" d="M104.5,47l-10,11Z" fill="rgba(0,0,0,0.73)"/>
      <path id="rgba_0_0_0_0.73_10" data-name="rgba(0,0,0,0.73)" d="M69.5,83l-3,4Z" fill="rgba(0,0,0,0.73)"/>
      <path id="rgba_0_0_0_0.73_11" data-name="rgba(0,0,0,0.73)" d="M135.5,84l-46,47Z" fill="rgba(0,0,0,0.73)"/>
      <path id="rgba_0_0_0_0.73_12" data-name="rgba(0,0,0,0.73)" d="M46.5,92l9,10Z" fill="rgba(0,0,0,0.73)"/>
      <path id="rgba_0_0_0_1_" data-name="rgba(0,0,0,1)" d="M32.5,11l-2,3Z" fill="rgba(0,0,0,1)"/>
      <path id="rgba_0_0_0_1_2" data-name="rgba(0,0,0,1)" d="M145.5,14l19,20Z" fill="rgba(0,0,0,1)"/>
      <path id="rgba_0_0_0_1_3" data-name="rgba(0,0,0,1)" d="M139.5,34l2,3Z" fill="rgba(0,0,0,1)"/>
      <path id="rgba_0_0_0_1_4" data-name="rgba(0,0,0,1)" d="M187.5,37l1,2Z" fill="rgba(0,0,0,1)"/>
      <path id="rgba_0_0_0_1_5" data-name="rgba(0,0,0,1)" d="M147.5,61l-37,38Z" fill="rgba(0,0,0,1)"/>
      <path id="rgba_0_0_0_1_6" data-name="rgba(0,0,0,1)" d="M153.5,67l-12,13Z" fill="rgba(0,0,0,1)"/>
      <path id="rgba_0_0_0_1_7" data-name="rgba(0,0,0,1)" d="M62.5,70l-16,17Z" fill="rgba(0,0,0,1)"/>
      <path id="rgba_0_0_0_1_8" data-name="rgba(0,0,0,1)" d="M128.5,71l-10,11Z" fill="rgba(0,0,0,1)"/>
      <path id="rgba_0_0_0_1_9" data-name="rgba(0,0,0,1)" d="M97.5,77l1,2Z" fill="rgba(0,0,0,1)"/>
      <path id="rgba_0_0_0_1_10" data-name="rgba(0,0,0,1)" d="M91.5,83l11,12Z" fill="rgba(0,0,0,1)"/>
      <path id="rgba_0_0_0_1_11" data-name="rgba(0,0,0,1)" d="M65.5,87l22,23Z" fill="rgba(0,0,0,1)"/>
      <path id="rgba_0_0_0_1_12" data-name="rgba(0,0,0,1)" d="M54.5,88l20,21Z" fill="rgba(0,0,0,1)"/>
      <path id="rgba_0_0_0_1_13" data-name="rgba(0,0,0,1)" d="M56.5,102l28,29Z" fill="rgba(0,0,0,1)"/>
      <path id="rgba_0_0_0_1_14" data-name="rgba(0,0,0,1)" d="M188.5,153l-1,2Z" fill="rgba(0,0,0,1)"/>
      <path id="rgba_0_0_0_0_" data-name="rgba(0,0,0,0)" d="M0,0H200V200H0ZM34,10l-2,1-3,4V131H23V35L13,36l-3,4v98H190V40l-1-2-3-3-11,1,2,3v92h-6V42H154V66L88,131,52,97q-5-2-6-8l65-65,2-1h26V10Zm112,3-1,16,2,3,7,3h12V34ZM115,27,53,89l35,33,19-18,42-42V40l-3-3a11.9,11.9,0,0,1-6-8l-1-2ZM10,143v3l5,8-5-3,1,4,4,2H186l2-1,2-3V143Zm76,18-6,19v3H64v7h72v-7H120v-3l-6-17v-2Z" transform="translate(33 -3)" fill="rgba(0,0,0,0)"/>
      <path id="rgba_0_0_0_0_2" data-name="rgba(0,0,0,0)" d="M36,17h6v5H36Z" fill="rgba(0,0,0,0)"/>
      <path id="rgba_0_0_0_0_3" data-name="rgba(0,0,0,0)" d="M49,17h6v5H49Z" fill="rgba(0,0,0,0)"/>
      <path id="rgba_0_0_0_0_4" data-name="rgba(0,0,0,0)" d="M134.5,34q4.8.3,6.5,3.5l1,4L138.5,46q-5.4.6-7.5-1-1.6-2.1-1-7.5Z" fill="rgba(0,0,0,0)"/>
      <path id="rgba_0_0_0_0_5" data-name="rgba(0,0,0,0)" d="M36,36H66.5l.5.5V42H36.5l-.5-.5Z" fill="rgba(0,0,0,0)"/>
      <path id="rgba_0_0_0_0_6" data-name="rgba(0,0,0,0)" d="M105.5,47l18,3,2.5,2.5,3,17L117.5,81h-5l-13-3L97,75.5l-3-17Zm2.5,7-8,8,2,12,2,1,10,2,8-7-2-12-1-2Z" fill="rgba(0,0,0,0)"/>
      <path id="rgba_0_0_0_0_7" data-name="rgba(0,0,0,0)" d="M36,49H66.5l.5,5H36.5Z" fill="rgba(0,0,0,0)"/>
      <path id="rgba_0_0_0_0_8" data-name="rgba(0,0,0,0)" d="M36,61H54.5l.5.5V67H36.5l-.5-.5Z" fill="rgba(0,0,0,0)"/>
      <path id="rgba_0_0_0_0_9" data-name="rgba(0,0,0,0)" d="M79.5,74,102,95.5,97.5,99,76,77.5Z" fill="rgba(0,0,0,0)"/>
      <path id="rgba_0_0_0_0_10" data-name="rgba(0,0,0,0)" d="M88.5,109,67,87.5Z" fill="rgba(0,0,0,0)"/>
      <path id="rgba_0_0_0_0_11" data-name="rgba(0,0,0,0)" d="M133,100h17.5l.5,5H133.5Z" fill="rgba(0,0,0,0)"/>
      <path id="rgba_0_0_0_0_12" data-name="rgba(0,0,0,0)" d="M158,100h6v5h-6Z" fill="rgba(0,0,0,0)"/>
      <path id="rgba_0_0_0_0_13" data-name="rgba(0,0,0,0)" d="M36,112H57.5l.5.5V118H36.5l-.5-.5Z" fill="rgba(0,0,0,0)"/>
      <path id="rgba_0_0_0_0_14" data-name="rgba(0,0,0,0)" d="M133,112h30.5l.5.5V118H133.5l-.5-.5Z" fill="rgba(0,0,0,0)"/>
      <path id="rgba_0_0_0_0_15" data-name="rgba(0,0,0,0)" d="M36,125H66.5l.5.5V131H36.5l-.5-.5Z" fill="rgba(0,0,0,0)"/>
      <path id="rgba_0_0_0_0_16" data-name="rgba(0,0,0,0)" d="M133,125h30.5l.5.5V131H133.5l-.5-.5Z" fill="rgba(0,0,0,0)"/>
      <path id="rgba_0_0_0_1_15" data-name="rgba(0,0,0,1)" d="M36.5,10h101l.5.5V22H112.5l-2,1L46,86.5l-1,5L84.5,131l3,1L154,67.5l1-2V42h14.5l.5.5v89l.5.5H178V38.5L177,36h8.5l3.5,3.5V137H11V39.5L14.5,36h7l.5.5v95l.5.5H30V14.5L33.5,11ZM35,16v7h8V16Zm13,0v7h8V16Zm13,0v7h7V16ZM35,35v7H68V35Zm0,13v7H68V48Zm0,13v7H56V61Zm97,38v7h20V99Zm25,0v7h8V99ZM35,112v7H59v-7Zm97,0v7h33v-7ZM35,124v8H68v-8Zm97,0v8h33v-8Z"/>
      <path id="rgba_0_0_0_1_16" data-name="rgba(0,0,0,1)" d="M145.5,15l18,19Q151,36,147,29.5,143.7,23.9,145.5,15Z"/>
      <path id="rgba_0_0_0_1_17" data-name="rgba(0,0,0,1)" d="M114.5,28h24l.5,2.5,7.5,8.5,1.5.5v21L87.5,121,55,88.5ZM136,33l-3,1q-5,2-4,10,2,5,10,3l4-6-1-4-2-3ZM106,46,93,59l4,19,6,2,16,2,11-12-4-20ZM80,73l-5,5,24,22,4-5Zm-9,9-6,6,23,22,5-4Z"/>
      <path id="rgba_0_0_0_1_18" data-name="rgba(0,0,0,1)" d="M107.5,55,119,57l2,12.5L113.5,76,103,74l-2-12.5Z"/>
      <path id="rgba_0_0_0_1_19" data-name="rgba(0,0,0,1)" d="M11.5,144h177l.5.5v8l-3.5,3.5H17.5Z"/>
      <path id="rgba_0_0_0_1_20" data-name="rgba(0,0,0,1)" d="M87.5,162h25l1.5,1.5,5,19,1.5,1.5H135v6H65.5l-.5-.5V184H79.5l1.5-1.5,4-16Z"/>
    </g>
  </g>
</svg>
